<?xml version="1.0" encoding="UTF-8"?>
<svg id="a" data-name="Layer 1" xmlns="http://www.w3.org/2000/svg" viewBox="0 0 167.62 38.58">
  <defs>
    <style>
      .b {
        fill: #da1a32;
      }

      .c {
        fill: #fff;
      }
    </style>
  </defs>
  <g>
    <path class="c" d="M82.37,6.56v1.85h-2.59v9.27h-2.32v-9.27h-2.59v-1.85h7.5Z"/>
    <path class="c" d="M87.05,17.68v-5.36c0-.69-.12-1.23-.82-1.23s-.82.54-.82,1.23v5.36h-2.17V6.56h2.17v4.13h.03c.43-.69,1.02-.94,1.83-.94,1.03,0,1.94.62,1.94,1.69v6.23h-2.17Z"/>
    <path class="c" d="M92.33,14.14c0,.92.03,2.31.99,2.31.77,0,.92-.74.92-1.39h2.2c-.03.85-.31,1.54-.83,2.02-.51.48-1.28.75-2.29.75-2.8,0-3.17-1.71-3.17-4.14,0-2.12.31-3.94,3.17-3.94s3.25,1.89,3.17,4.39h-4.16ZM94.32,12.92c0-.75.03-1.83-1-1.83s-.99,1.17-.99,1.83h1.99Z"/>
    <path class="c" d="M100.01,12.12c0-2.94,0-5.74,3.83-5.74,2.37,0,3.32,1.31,3.23,3.69h-2.28c0-1.48-.26-2.03-.95-2.03-1.31,0-1.48,1.23-1.48,4.08s.17,4.08,1.48,4.08c1.08,0,1.03-1.39,1.06-2.26h2.29c0,2.97-1.19,3.93-3.36,3.93-3.83,0-3.83-2.83-3.83-5.74Z"/>
    <path class="c" d="M114.07,16.23c0,.48.06.97.11,1.45h-2.02l-.09-1.03h-.03c-.46.8-1.09,1.19-2.03,1.19-1.51,0-2.06-1.12-2.06-2.48,0-2.57,1.99-2.68,4-2.65v-.6c0-.66-.09-1.14-.88-1.14s-.82.57-.82,1.19h-2.12c0-.94.29-1.54.8-1.89.49-.37,1.2-.51,2.03-.51,2.76,0,3.11,1.19,3.11,2.6v3.88ZM110.07,15.26c0,.55.09,1.23.8,1.23,1.28,0,1.08-1.72,1.08-2.57-1.08.05-1.88-.05-1.88,1.34Z"/>
    <path class="c" d="M117.61,6.56v11.11h-2.17V6.56h2.17Z"/>
    <path class="c" d="M121.27,6.56v1.71h-2.17v-1.71h2.17ZM121.27,17.68h-2.17v-7.77h2.17v7.77Z"/>
    <path class="c" d="M126.38,7.9c-.88-.06-1.06.28-1.06,1.06v.94h1.02v1.34h-1.02v6.43h-2.17v-6.43h-.97v-1.34h.99c-.02-2.23-.2-3.42,2.45-3.42.26,0,.51.02.77.03v1.39Z"/>
    <path class="c" d="M126.75,13.69c0-2.12.31-3.94,3.17-3.94s3.17,1.82,3.17,3.94c0,2.43-.37,4.14-3.17,4.14s-3.17-1.71-3.17-4.14ZM130.92,13.57c0-1.62-.08-2.43-1-2.43s-1,.82-1,2.43c0,2.37.2,2.88,1,2.88s1-.51,1-2.88Z"/>
    <path class="c" d="M136.3,9.9v1h.03c.4-.89,1.14-1.15,2.02-1.15v1.94c-1.91-.12-1.94.99-1.94,1.75v4.23h-2.17v-7.77h2.06Z"/>
    <path class="c" d="M141.21,10.69h.03c.43-.69,1.02-.94,1.83-.94,1.03,0,1.94.62,1.94,1.69v6.23h-2.17v-5.36c0-.69-.12-1.23-.82-1.23s-.82.54-.82,1.23v5.36h-2.17v-7.77h2.17v.79Z"/>
    <path class="c" d="M148.63,6.56v1.71h-2.17v-1.71h2.17ZM148.63,17.68h-2.17v-7.77h2.17v7.77Z"/>
    <path class="c" d="M155.98,16.23c0,.48.06.97.11,1.45h-2.02l-.09-1.03h-.03c-.46.8-1.09,1.19-2.03,1.19-1.51,0-2.06-1.12-2.06-2.48,0-2.57,1.99-2.68,4-2.65v-.6c0-.66-.09-1.14-.88-1.14s-.82.57-.82,1.19h-2.12c0-.94.29-1.54.8-1.89.49-.37,1.2-.51,2.03-.51,2.76,0,3.11,1.19,3.11,2.6v3.88ZM151.98,15.26c0,.55.09,1.23.8,1.23,1.28,0,1.08-1.72,1.08-2.57-1.08.05-1.88-.05-1.88,1.34Z"/>
    <path class="c" d="M78.42,32.15c-2.88,0-3.42-1.69-3.29-3.62h2.32c0,1.06.05,1.95,1.32,1.95.79,0,1.17-.51,1.17-1.26,0-2-4.68-2.12-4.68-5.43,0-1.74.83-3.13,3.66-3.13,2.26,0,3.39,1.02,3.23,3.34h-2.26c0-.83-.14-1.68-1.08-1.68-.75,0-1.2.42-1.2,1.19,0,2.11,4.68,1.92,4.68,5.42,0,2.88-2.11,3.22-3.88,3.22Z"/>
    <path class="c" d="M82.65,24.19h.88v-1.23l2.17-.97v2.2h1.12v1.34h-1.12v4.16c0,.58-.02.97.69.97.14,0,.28,0,.39-.03v1.34c-.29.03-.6.08-1.12.08-1.88,0-2.12-1.25-2.12-1.72v-4.79h-.88v-1.34Z"/>
    <path class="c" d="M93.55,30.52c0,.48.06.97.11,1.45h-2.02l-.09-1.03h-.03c-.46.8-1.09,1.19-2.03,1.19-1.51,0-2.06-1.12-2.06-2.48,0-2.57,1.99-2.68,4-2.65v-.6c0-.66-.09-1.14-.88-1.14s-.82.57-.82,1.19h-2.12c0-.94.29-1.54.8-1.89.49-.37,1.2-.51,2.03-.51,2.76,0,3.11,1.19,3.11,2.6v3.88ZM89.54,29.55c0,.55.09,1.23.8,1.23,1.28,0,1.08-1.72,1.08-2.57-1.08.05-1.88-.05-1.88,1.34Z"/>
    <path class="c" d="M94.14,24.19h.88v-1.23l2.17-.97v2.2h1.12v1.34h-1.12v4.16c0,.58-.02.97.69.97.14,0,.28,0,.39-.03v1.34c-.29.03-.6.08-1.12.08-1.88,0-2.12-1.25-2.12-1.72v-4.79h-.88v-1.34Z"/>
    <path class="c" d="M100.98,28.42c0,.92.03,2.31.99,2.31.77,0,.92-.74.92-1.39h2.2c-.03.85-.31,1.54-.83,2.02-.51.48-1.28.75-2.29.75-2.8,0-3.17-1.71-3.17-4.14,0-2.12.31-3.94,3.17-3.94s3.25,1.89,3.17,4.39h-4.16ZM102.96,27.21c0-.75.03-1.83-1-1.83s-.99,1.17-.99,1.83h1.99Z"/>
    <path class="c" d="M116.1,20.85v7.88c0,1.66-.94,3.42-3.77,3.42-2.56,0-3.79-1.32-3.79-3.42v-7.88h2.32v7.73c0,1.37.58,1.91,1.43,1.91,1.02,0,1.48-.68,1.48-1.91v-7.73h2.32Z"/>
    <path class="c" d="M119.67,24.98h.03c.43-.69,1.02-.94,1.83-.94,1.03,0,1.94.62,1.94,1.69v6.23h-2.17v-5.36c0-.69-.12-1.23-.82-1.23s-.82.54-.82,1.23v5.36h-2.17v-7.77h2.17v.79Z"/>
    <path class="c" d="M127.16,20.85v1.71h-2.17v-1.71h2.17ZM127.16,31.97h-2.17v-7.77h2.17v7.77Z"/>
    <path class="c" d="M127.96,24.19h2.2l1.09,5.83h.03l1.14-5.83h2.12l-2.14,7.77h-2.39l-2.06-7.77Z"/>
    <path class="c" d="M137.15,28.42c0,.92.03,2.31.99,2.31.77,0,.92-.74.92-1.39h2.2c-.03.85-.31,1.54-.83,2.02-.51.48-1.28.75-2.29.75-2.8,0-3.17-1.71-3.17-4.14,0-2.12.31-3.94,3.17-3.94s3.25,1.89,3.17,4.39h-4.16ZM139.14,27.21c0-.75.03-1.83-1-1.83s-.99,1.17-.99,1.83h1.99Z"/>
    <path class="c" d="M144.52,24.19v1h.03c.4-.89,1.14-1.15,2.02-1.15v1.94c-1.91-.12-1.94.99-1.94,1.75v4.23h-2.17v-7.77h2.06Z"/>
    <path class="c" d="M148.95,29.47c-.02.35,0,.69.11.94.12.25.35.37.79.37s.8-.28.8-.8c0-1.65-3.82-1.28-3.82-3.76,0-1.68,1.66-2.19,3.06-2.19,1.48,0,2.82.71,2.69,2.39h-2.12c0-.54-.06-.86-.22-1-.14-.14-.32-.17-.55-.17-.48,0-.74.31-.74.83,0,1.23,3.82,1.17,3.82,3.66,0,1.35-1.11,2.37-2.91,2.37-1.89,0-3.16-.48-3.03-2.65h2.12Z"/>
    <path class="c" d="M155.98,20.85v1.71h-2.17v-1.71h2.17ZM155.98,31.97h-2.17v-7.77h2.17v7.77Z"/>
    <path class="c" d="M156.7,24.19h.88v-1.23l2.17-.97v2.2h1.12v1.34h-1.12v4.16c0,.58-.02.97.69.97.14,0,.28,0,.39-.03v1.34c-.29.03-.6.08-1.12.08-1.88,0-2.12-1.25-2.12-1.72v-4.79h-.88v-1.34Z"/>
    <path class="c" d="M163.17,32.03l-2.11-7.84h2.16l1.11,5.47h.03l1.17-5.47h2.09l-3,10.71h-2.28l.83-2.88Z"/>
  </g>
  <rect class="c" width="68.91" height="38.58"/>
  <g>
    <path class="b" d="M26.85,15.44h4.76s.04-3.21-.03-4.47c-.07-1.26-.81-4.63-6.32-4.59-5.4.03-6.58,4.36-6.58,6.14s-.07,11.6,0,13.98c.07,2.39,1.71,5.65,6.52,5.66,5.02.02,6.36-2.71,6.41-4.74.05-2.32,0-4.32,0-4.32h-4.76s-.01,2.29-.01,3.46c0,.85-.44,2.03-1.64,1.91-1.44-.14-1.46-1.18-1.46-2.77,0-1.74,0-11.53,0-13.03s.48-2.65,1.6-2.63c1.07.03,1.54.88,1.53,2.63-.01,1.6,0,2.75,0,2.75Z"/>
    <path class="b" d="M46.34,15.14s-.01-1.83-.01-4.02-.83-4.73-5.76-4.71c-4.94.02-6.12,2.76-6.31,5.25-.17,2.23.03,3.74.24,4.3.18.46.48,1.19,2.01,2.59,1.47,1.34,3.73,3.14,4.6,4.19.78.94.72,2.56.72,3.07s0,1.82-.34,2.25c-.29.37-.73.48-1.31.44-.77-.05-1.41-.18-1.4-1.87,0-1.67.01-3.44.01-3.44h-4.76s0,3.56.02,4.48c.03.77.49,2.48,1.42,3.23,1.27,1.01,2.5,1.3,4.55,1.29,2.46-.01,4.06-.52,5.15-1.69.87-.94,1.42-2.33,1.42-5.26,0-3.07-.61-4.33-2.68-6.35-2.12-2.07-4.2-3.45-4.67-4.6-.37-.89-.27-2.44-.2-3.09.06-.58.29-1.12,1.21-1.11.72.01,1.16.18,1.38.91.22.72.15,4.13.15,4.13h4.57Z"/>
    <path class="b" d="M62.49,6.67v25.19h-4.49s0-3.08,0-3.08c0,0-.42,3.67-5.11,3.35-4.62-.31-3.92-5.66-3.91-7.47.01-1.09,0-17.98,0-17.98h5.07v19.59s.02,1.03.29,1.37c.33.4.65.54,1.26.54s1.08-.22,1.39-.63c.31-.41.42-1.23.42-1.65,0-.41,0-19.21,0-19.21h5.07Z"/>
  </g>
</svg>