<?xml version="1.0" encoding="utf-8"?>
<!-- Generator: Adobe Illustrator 16.0.4, SVG Export Plug-In . SVG Version: 6.00 Build 0)  -->
<!DOCTYPE svg PUBLIC "-//W3C//DTD SVG 1.1//EN" "http://www.w3.org/Graphics/SVG/1.1/DTD/svg11.dtd">
<svg version="1.1" id="Layer_1" xmlns="http://www.w3.org/2000/svg" xmlns:xlink="http://www.w3.org/1999/xlink" x="0px" y="0px"
	 width="218px" height="36px" viewBox="0 0 218 36" enable-background="new 0 0 218 36" xml:space="preserve">
<symbol  id="CI_Logo_Compact_HR" viewBox="0 -64.8 389.9 64.8">
	<path fill="#686868" d="M106.7-18v-2.8c-4,2.2-8,3.2-11.9,3.2c-4.1,0-7.6-1.4-10.4-4.3c-2.8-2.8-4.2-6.4-4.2-10.6
		c0-4.3,1.4-7.8,4.2-10.6c2.8-2.8,6.4-4.2,10.7-4.2c3.6,0,7.6,1.1,11.8,3.4v-2.7c-3.9-2.1-7.9-3.1-11.8-3.1c-5.1,0-9.3,1.6-12.7,4.9
		c-3.4,3.3-5.1,7.4-5.1,12.3c0,4.9,1.7,9,5.2,12.3c3.4,3.3,7.5,5,12.3,5C98.7-15.2,102.6-16.2,106.7-18L106.7-18z"/>
	<path fill="#686868" d="M115-15.7V-31h0.1c1.8,2.9,4.2,4.3,7.2,4.3c2.5,0,4.5-0.8,5.9-2.4c1.5-1.6,2.2-3.8,2.2-6.6v-13.5h-2.3v12.6
		c0,5.1-2,7.6-6,7.6c-2.9,0-5.2-1.6-7.2-4.7v-15.5h-2.3v33.5H115L115-15.7z"/>
	<path fill="#686868" d="M149.6-44.9v6.9c-3,0.1-5.5-0.4-7.5-1.6c-2-1.2-3-2.7-3-4.5c0-1,0.4-1.9,1.2-2.6c0.8-0.7,1.9-1.1,3.1-1.1
		C145.5-47.7,147.6-46.8,149.6-44.9L149.6-44.9z M155.6-45.4v-2c-2-1.5-3.5-2.3-4.4-2.3c-0.5,0-0.9,0.2-1.1,0.5
		c-0.2,0.4-0.4,1.1-0.5,2.2c-2.3-1.8-4.6-2.8-6.9-2.8c-1.7,0-3,0.5-4.2,1.6c-1.1,1.1-1.7,2.4-1.7,4c0,2.4,1.1,4.3,3.3,5.7
		c2.2,1.4,5.4,2.2,9.5,2.4v2.8c0,3-1.6,4.5-4.9,4.5c-2.1,0-4.3-0.9-6.7-2.8v2.4c2.5,1.6,4.8,2.4,7.1,2.4c2,0,3.6-0.5,4.9-1.5
		c1.3-1,1.9-2.4,1.9-4.3v-13.7c0-0.7,0.2-1.1,0.5-1.1C153-47.4,154-46.7,155.6-45.4L155.6-45.4z"/>
	<path fill="#686868" d="M162.8-27.1V-31h0.1c1.8,2.9,4.2,4.3,7.2,4.3c2.5,0,4.5-0.8,5.9-2.4c1.5-1.6,2.2-3.8,2.2-6.6v-13.5h-2.3
		v12.6c0,5.1-2,7.6-6,7.6c-2.9,0-5.3-1.6-7.2-4.7v-15.5h-2.3v22.1H162.8L162.8-27.1z"/>
	<path fill="#686868" d="M188.2-27.1V-31h0.1c1.8,2.9,4.2,4.3,7.2,4.3c2.5,0,4.5-0.8,5.9-2.4c1.5-1.6,2.2-3.8,2.2-6.6v-13.5h-2.3
		v12.6c0,5.1-2,7.6-6,7.6c-2.9,0-5.3-1.6-7.2-4.7v-15.5h-2.3v22.1H188.2L188.2-27.1z"/>
	<path fill="#686868" d="M213-35.5h14.2c-0.8,4.3-3.1,6.5-6.9,6.5c-1.8,0-3.3-0.6-4.6-1.7C214.3-31.9,213.5-33.4,213-35.5L213-35.5z
		 M230-37.4h-17.2c0-0.4-0.1-0.8-0.1-1.1c0-2.5,0.9-4.5,2.6-6.2c1.7-1.7,3.8-2.6,6.2-2.6c2.8,0,5.5,1.1,8.1,3.3v-2.7
		c-2.5-2-5.3-2.9-8.4-2.9c-3.2,0-5.8,1.1-7.8,3.3c-2.1,2.2-3.1,5-3.1,8.4c0,3.2,1,5.9,2.9,8c1.9,2.1,4.3,3.2,7.2,3.2
		c2.7,0,5-1,6.9-2.9C229-31.5,230-34.1,230-37.4L230-37.4z"/>
	<polygon fill="#686868" points="238.9,-15.7 238.9,-49.2 236.6,-49.2 236.6,-15.7 238.9,-15.7 	"/>
	<polygon fill="#686868" points="265.3,-15.7 265.3,-49.2 262.7,-49.2 262.7,-15.7 265.3,-15.7 	"/>
	<path fill="#686868" d="M285.6-28.6v-2.5c-2.2,1.5-4.2,2.2-6,2.2c-1.3,0-2.4-0.4-3.3-1.1c-0.9-0.7-1.3-1.6-1.3-2.6
		c0-0.8,0.3-1.4,0.8-2.1c0.6-0.6,2.1-1.4,4.5-2.4c2.5-1,4.1-2,4.8-3c0.8-1,1.1-2.2,1.1-3.5c0-1.7-0.7-3.2-2.1-4.3
		c-1.4-1.2-3.1-1.8-5.1-1.8c-2.2,0-4.4,0.7-6.6,2v2.3c2.6-1.3,4.9-2,6.9-2c1.3,0,2.4,0.4,3.3,1.1c0.9,0.7,1.3,1.6,1.3,2.8
		c0,0.8-0.3,1.5-0.8,2.1c-0.6,0.6-2.1,1.5-4.5,2.5c-2.5,1-4.1,2-4.8,2.9c-0.7,1-1.1,2-1.1,3.2c0,1.7,0.7,3.1,2.1,4.3
		c1.4,1.2,3,1.8,5,1.8C281.5-26.7,283.5-27.3,285.6-28.6L285.6-28.6z"/>
	<polygon fill="#686868" points="295.1,-15.7 295.1,-49.2 292.8,-49.2 292.8,-15.7 295.1,-15.7 	"/>
	<path fill="#686868" d="M314.5-44.9v6.9c-3,0.1-5.5-0.4-7.5-1.6c-2-1.2-3-2.7-3-4.5c0-1,0.4-1.9,1.2-2.6c0.8-0.7,1.9-1.1,3.1-1.1
		C310.4-47.7,312.5-46.8,314.5-44.9L314.5-44.9z M320.5-45.4v-2c-2-1.5-3.5-2.3-4.4-2.3c-0.5,0-0.9,0.2-1.1,0.5
		c-0.2,0.4-0.4,1.1-0.5,2.2c-2.3-1.8-4.6-2.8-6.9-2.8c-1.7,0-3,0.5-4.2,1.6c-1.1,1.1-1.7,2.4-1.7,4c0,2.4,1.1,4.3,3.3,5.7
		c2.2,1.4,5.4,2.2,9.5,2.4v2.8c0,3-1.6,4.5-4.9,4.5c-2.1,0-4.3-0.9-6.7-2.8v2.4c2.5,1.6,4.8,2.4,7.1,2.4c2,0,3.6-0.5,4.9-1.5
		c1.3-1,1.9-2.4,1.9-4.3v-13.7c0-0.7,0.2-1.1,0.5-1.1C317.9-47.4,318.9-46.7,320.5-45.4L320.5-45.4z"/>
	<path fill="#686868" d="M327.7-27.1V-31h0.1c1.8,2.9,4.2,4.3,7.2,4.3c2.5,0,4.5-0.8,5.9-2.4c1.5-1.6,2.2-3.8,2.2-6.6v-13.5h-2.3
		v12.6c0,5.1-2,7.6-6,7.6c-2.9,0-5.3-1.6-7.2-4.7v-15.5h-2.3v22.1H327.7L327.7-27.1z"/>
	<path fill="#686868" d="M367.3-45.3v14.2c-2.1,1.4-4.2,2.1-6.3,2.1c-2.5,0-4.6-0.8-6.2-2.5c-1.6-1.7-2.4-3.8-2.4-6.5
		c0-2.7,0.9-4.9,2.6-6.7c1.7-1.8,3.9-2.7,6.5-2.7C363.4-47.4,365.4-46.7,367.3-45.3L367.3-45.3z M369.7-15.7v-33.5h-2.4v1.7
		c-2-1.5-4.1-2.2-6.4-2.2c-3.1,0-5.7,1.1-7.8,3.3c-2.1,2.2-3.2,4.9-3.2,8.2c0,3.3,1,6,3.1,8.2c2.1,2.2,4.7,3.3,7.9,3.3
		c2,0,4.2-0.6,6.4-1.8v12.8H369.7L369.7-15.7z"/>
	<path fill="#686868" d="M389.2-28.6v-2.5c-2.2,1.5-4.2,2.2-6,2.2c-1.3,0-2.4-0.4-3.3-1.1c-0.9-0.7-1.3-1.6-1.3-2.6
		c0-0.8,0.3-1.4,0.8-2.1c0.6-0.6,2.1-1.4,4.5-2.4s4.1-2,4.8-3c0.8-1,1.1-2.2,1.1-3.5c0-1.7-0.7-3.2-2.1-4.3
		c-1.4-1.2-3.1-1.8-5.1-1.8c-2.2,0-4.4,0.7-6.5,2v2.3c2.6-1.3,4.9-2,6.9-2c1.3,0,2.4,0.4,3.3,1.1c0.9,0.7,1.3,1.6,1.3,2.8
		c0,0.8-0.3,1.5-0.8,2.1c-0.6,0.6-2.1,1.5-4.5,2.5c-2.5,1-4.1,2-4.8,2.9c-0.7,1-1.1,2-1.1,3.2c0,1.7,0.7,3.1,2,4.3
		c1.4,1.2,3,1.8,5,1.8C385.1-26.7,387.1-27.3,389.2-28.6L389.2-28.6z"/>
	<g>
		<line fill="none" stroke="#686868" stroke-width="0.773" x1="63.8" y1="0" x2="63.8" y2="-64.8"/>
	</g>
	<path fill="#D72A37" d="M52.5-32.4c0-14.3-11.8-25.8-26.3-25.8C11.8-58.2,0-46.7,0-32.4C0-18.1,11.8-6.6,26.3-6.6
		C40.8-6.6,52.5-18.1,52.5-32.4L52.5-32.4z"/>
	<path fill="#FFFFFF" d="M15.3-19.6c-5.7-0.6-9.9-6-9.9-12.8c0-6.6,4.6-12,10.5-12.3c2.8-0.2,5.1,1,7.5,3.7l0.7,0.8l-3.6-0.1
		l-0.2-0.2c-1.3-1.3-3.1-1.5-4.4-1.4c-4.2,0.2-7.5,4.4-7.6,9.5c-0.1,5.7,3.8,9.9,7.6,10.3c2.2,0.2,3.3-0.5,4.9-1.7l0.1-0.1l3.5-0.1
		l-0.7,0.8C21.5-20.6,18.4-19.2,15.3-19.6L15.3-19.6z"/>
	<path fill="#FFFFFF" d="M46.3-21.2h-2.4v-17.3c-0.1-1.9-2.3-3.4-5.2-3.4c-2.7,0.3-4.6,1.6-4.7,3.4v17.3h-2.9v-17.3
		c0.2-3.4,3.5-6.1,7.5-6.1c0,0,0.8,0,0.8,0c3.9,0,7.2,2.7,7.3,6.1v17.4H46.3L46.3-21.2z"/>
	<path fill="#FFFFFF" d="M25-14.8c-5.5-0.2-9.6-4-9.7-9.1c-0.1-4,3.3-7.5,8.9-9.2c0,0,2.1-0.9,2.1-0.9c2.2-0.8,4.7-2.9,4.7-6.4
		c-0.2-3.6-3.2-6.5-6.8-6.5c-2.7,0-5.8,1.7-7.2,4l-0.2,0.4l-2.4-1.3l0.3-0.4c1.7-2.6,5.6-5.3,9.4-5.3c3,0,6,1.5,7.9,3.8
		c1.5,1.9,2.2,4.2,1.8,6.5c-0.7,4.6-3.1,6.9-9.1,8.9c-2.5,0.8-6.6,2.8-6.6,6.7c0,1.5,0.7,3.1,2,4.3c1.4,1.3,3.3,2.1,5.1,1.9
		c4.2-0.2,5.2-1.5,5.7-2.7l0.1-0.3l3,0l-0.2,0.6C32.2-14.5,26.8-14.7,25-14.8L25-14.8z"/>
</symbol>
<use xlink:href="#CI_Logo_Compact_HR"  width="389.9" height="64.8" id="XMLID_1_" y="-64.8" transform="matrix(0.5552 0 0 -0.5552 0 0)" overflow="visible"/>
</svg>
